# xmcd CD database file
# Copyright (C) 1993-1996 Ti Kan
#
# Track frame offsets:
#	150
#	17600
#	29762
#	40550
#	53307
#	68557
#	80985
#	94897
#	104262
#	115855
#	129197
#	139250
#	150967
#	162230
#	179087
#	196795
#	206957
#
# Disc length: 2921 seconds
#
# Revision: 1
# Processed by: cddbd v1.4b41PL1 Copyright (c) Steve Scherf et al.
# Submitted via: CDValet v3.01 - Copyright (c) 1997 Greg Leichner
#
DISCID=df0b6711
DTITLE=Taylor, Little Johnny - Greatest Hits
DYEAR=1900
DGENRE=
TTITLE0=Part Time Love
TTITLE1=I Smell Trouble
TTITLE2=Zag Zag Lightning
TTITLE3=You'll Need Another Favor
TTITLE4=Double Or Nothing
TTITLE5=Big Blue Diamonds
TTITLE6=Somebody's Got To Pay
TTITLE7=Darling, Believe In Me
TTITLE8=If You Love Me (Like You Say)
TTITLE9=I Know You Hear Me Calling
TTITLE10=Sometimey Woman
TTITLE11=You Win, I Loose
TTITLE12=My Heart Is Filled With Pain
TTITLE13=First Class Love
TTITLE14=Since I Found A New Love
TTITLE15=Somewhere Down The Line
TTITLE16=One More Chance
EXTD=
EXTT0=
EXTT1=
EXTT2=
EXTT3=
EXTT4=
EXTT5=
EXTT6=
EXTT7=
EXTT8=
EXTT9=
EXTT10=
EXTT11=
EXTT12=
EXTT13=
EXTT14=
EXTT15=
EXTT16=
PLAYORDER=
